ffmpeg started on 2025-07-16 at 17:45:35
Report written to "D:\Convert\FFMetrics\reports\psnr_report-6.txt"
Log level: 32
Command line:
ffmpeg -hide_banner -nostdin -i "G:\\\xc0\xed\xe8\xec\xe5\\Shiza\\\xcb\xe5\xe3\xe5\xed\xe4\xe0 \xee \xc3\xf0\xe0\xed\xea\xf0\xe5\xf1\xf2\xe5\\[SHIZA Project] Grancrest Senki TV [23] [nDrOiDze & Lizaveta]_HEVC.mkv" -i "G:\\\xc0\xed\xe8\xec\xe5\\Shiza\\\xcb\xe5\xe3\xe5\xed\xe4\xe0 \xee \xc3\xf0\xe0\xed\xea\xf0\xe5\xf1\xf2\xe5\\[SHIZA Project] Grancrest Senki TV [23] [nDrOiDze & Lizaveta].mkv" -lavfi "[0:v]settb=AVTB,setpts=PTS-STARTPTS,format=pix_fmts=yuv420p10,fps=24000/1001,scale=1280:720:flags=bicubic[main];[1:v]settb=AVTB,setpts=PTS-STARTPTS,format=pix_fmts=yuv420p,fps=24000/1001,scale=1280:720:flags=bicubic[ref];[main][ref]psnr=eof_action=endall:stats_file='D\\:/Convert/FFMetrics/logs/psnr_logfile-6.txt'" -f null -
Input #0, matroska,webm, from 'G:\Аниме\Shiza\Легенда о Гранкресте\[SHIZA Project] Grancrest Senki TV [23] [nDrOiDze & Lizaveta]_HEVC.mkv':
  Metadata:
    ENCODER         : Lavf61.7.100
  Duration: 00:23:41.14, start: -0.021000, bitrate: 889 kb/s
  Stream #0:0(jpn): Video: hevc (Main 10), yuv420p10le(tv, bt709, progressive), 1280x720 [SAR 1:1 DAR 16:9], 23.98 fps, 23.98 tbr, 1k tbn (default)
      Metadata:
        title           : [SHIZA Project] Grancrest Senki TV [WEBRip]
        ENCODER         : Lavc61.19.100 libx265
        BPS             : 692019
        DURATION        : 00:23:40.002708333
        NUMBER_OF_FRAMES: 34046
        NUMBER_OF_BYTES : 122833620
        _STATISTICS_WRITING_APP: mkvpropedit v66.0.0 ('Josie') 64-bit
        _STATISTICS_WRITING_DATE_UTC: 2025-07-16 11:49:47
        _STATISTICS_TAGS: BPS DURATION NUMBER_OF_FRAMES NUMBER_OF_BYTES
  Stream #0:1(rus): Audio: aac (LC), 48000 Hz, stereo, fltp (default)
      Metadata:
        title           : nDrOiDze & Lizaveta
        ENCODER         : Lavc61.19.100 aac
        BPS             : 194370
        DURATION        : 00:23:41.120000000
        NUMBER_OF_FRAMES: 66616
        NUMBER_OF_BYTES : 34528004
        _STATISTICS_WRITING_APP: mkvpropedit v66.0.0 ('Josie') 64-bit
        _STATISTICS_WRITING_DATE_UTC: 2025-07-16 11:49:47
        _STATISTICS_TAGS: BPS DURATION NUMBER_OF_FRAMES NUMBER_OF_BYTES
Input #1, matroska,webm, from 'G:\Аниме\Shiza\Легенда о Гранкресте\[SHIZA Project] Grancrest Senki TV [23] [nDrOiDze & Lizaveta].mkv':
  Metadata:
    encoder         : libebml v1.3.4 + libmatroska v1.4.5
    creation_time   : 2018-06-20T23:49:05.000000Z
  Duration: 00:23:41.12, start: 0.000000, bitrate: 2862 kb/s
  Stream #1:0(jpn): Video: h264 (High), yuv420p(progressive), 1280x720 [SAR 1:1 DAR 16:9], 23.98 fps, 23.98 tbr, 1k tbn (default)
      Metadata:
        title           : [SHIZA Project] Grancrest Senki TV [WEBRip]
        BPS             : 2666695
        BPS-eng         : 2666695
        DURATION        : 00:23:40.004000000
        DURATION-eng    : 00:23:40.004000000
        NUMBER_OF_FRAMES: 34046
        NUMBER_OF_FRAMES-eng: 34046
        NUMBER_OF_BYTES : 473339711
        NUMBER_OF_BYTES-eng: 473339711
        _STATISTICS_WRITING_APP: mkvmerge v10.0.0 ('To Drown In You') 64bit
        _STATISTICS_WRITING_APP-eng: mkvmerge v10.0.0 ('To Drown In You') 64bit
        _STATISTICS_WRITING_DATE_UTC: 2018-06-20 23:49:05
        _STATISTICS_WRITING_DATE_UTC-eng: 2018-06-20 23:49:05
        _STATISTICS_TAGS: BPS DURATION NUMBER_OF_FRAMES NUMBER_OF_BYTES
        _STATISTICS_TAGS-eng: BPS DURATION NUMBER_OF_FRAMES NUMBER_OF_BYTES
  Stream #1:1(rus): Audio: aac (LC), 48000 Hz, stereo, fltp (default)
      Metadata:
        title           : nDrOiDze & Lizaveta
        BPS             : 194284
        BPS-eng         : 194284
        DURATION        : 00:23:41.120000000
        DURATION-eng    : 00:23:41.120000000
        NUMBER_OF_FRAMES: 66615
        NUMBER_OF_FRAMES-eng: 66615
        NUMBER_OF_BYTES : 34512768
        NUMBER_OF_BYTES-eng: 34512768
        _STATISTICS_WRITING_APP: mkvmerge v10.0.0 ('To Drown In You') 64bit
        _STATISTICS_WRITING_APP-eng: mkvmerge v10.0.0 ('To Drown In You') 64bit
        _STATISTICS_WRITING_DATE_UTC: 2018-06-20 23:49:05
        _STATISTICS_WRITING_DATE_UTC-eng: 2018-06-20 23:49:05
        _STATISTICS_TAGS: BPS DURATION NUMBER_OF_FRAMES NUMBER_OF_BYTES
        _STATISTICS_TAGS-eng: BPS DURATION NUMBER_OF_FRAMES NUMBER_OF_BYTES
  Stream #1:2: Attachment: ttf
      Metadata:
        filename        : OpenSans-Semibold.ttf
        mimetype        : application/x-truetype-font
Stream mapping:
  Stream #0:0 (hevc) -> settb:default
  Stream #1:0 (h264) -> settb:default
  psnr:default -> Stream #0:0 (wrapped_avframe)
  Stream #0:1 -> #0:1 (aac (native) -> pcm_s16le (native))
[swscaler @ 000001e01af7bb40] No accelerated colorspace conversion found from yuv420p to bgr48le.
[swscaler @ 000001e01b123040] No accelerated colorspace conversion found from yuv420p to bgr48le.
[swscaler @ 000001e01b2b6740] No accelerated colorspace conversion found from yuv420p to bgr48le.
[swscaler @ 000001e01b3f8200] No accelerated colorspace conversion found from yuv420p to bgr48le.
[swscaler @ 000001e01b53cb00] No accelerated colorspace conversion found from yuv420p to bgr48le.
[swscaler @ 000001e01b655c80] No accelerated colorspace conversion found from yuv420p to bgr48le.
[swscaler @ 000001e01b71a740] No accelerated colorspace conversion found from yuv420p to bgr48le.
[swscaler @ 000001e01b777040] No accelerated colorspace conversion found from yuv420p to bgr48le.
[swscaler @ 000001e01b7d2040] No accelerated colorspace conversion found from yuv420p to bgr48le.
[swscaler @ 000001e01b839040] No accelerated colorspace conversion found from yuv420p to bgr48le.
[swscaler @ 000001e01b8c5040] No accelerated colorspace conversion found from yuv420p to bgr48le.
[swscaler @ 000001e01b924040] No accelerated colorspace conversion found from yuv420p to bgr48le.
[swscaler @ 000001e01b994040] No accelerated colorspace conversion found from yuv420p to bgr48le.
[swscaler @ 000001e01b9cfec0] No accelerated colorspace conversion found from yuv420p to bgr48le.
[swscaler @ 000001e01b9dda40] No accelerated colorspace conversion found from yuv420p to bgr48le.
[swscaler @ 000001e020019b00] No accelerated colorspace conversion found from yuv420p to bgr48le.
Output #0, null, to 'pipe:':
  Metadata:
    encoder         : Lavf61.7.100
  Stream #0:0: Video: wrapped_avframe, yuv420p10le(tv, bt709, progressive), 1280x720 [SAR 1:1 DAR 16:9], q=2-31, 200 kb/s, 23.98 fps, 23.98 tbn
      Metadata:
        encoder         : Lavc61.19.100 wrapped_avframe
  Stream #0:1(rus): Audio: pcm_s16le, 48000 Hz, stereo, s16, 1536 kb/s (default)
      Metadata:
        title           : nDrOiDze & Lizaveta
        _STATISTICS_TAGS: BPS DURATION NUMBER_OF_FRAMES NUMBER_OF_BYTES
        BPS             : 194370
        DURATION        : 00:23:41.120000000
        NUMBER_OF_FRAMES: 66616
        NUMBER_OF_BYTES : 34528004
        _STATISTICS_WRITING_APP: mkvpropedit v66.0.0 ('Josie') 64-bit
        _STATISTICS_WRITING_DATE_UTC: 2025-07-16 11:49:47
        encoder         : Lavc61.19.100 pcm_s16le
frame=   78 fps=0.0 q=-0.0 size=N/A time=00:00:03.25 bitrate=N/A speed=6.26x    frame=  170 fps=164 q=-0.0 size=N/A time=00:00:07.09 bitrate=N/A speed=6.82x    frame=  264 fps=170 q=-0.0 size=N/A time=00:00:11.01 bitrate=N/A speed=7.11x    frame=  357 fps=173 q=-0.0 size=N/A time=00:00:14.88 bitrate=N/A speed=7.21x    frame=  451 fps=175 q=-0.0 size=N/A time=00:00:18.81 bitrate=N/A speed= 7.3x    frame=  540 fps=174 q=-0.0 size=N/A time=00:00:22.52 bitrate=N/A speed=7.27x    frame=  624 fps=172 q=-0.0 size=N/A time=00:00:26.02 bitrate=N/A speed=7.18x    frame=  716 fps=173 q=-0.0 size=N/A time=00:00:29.86 bitrate=N/A speed=7.21x    frame=  824 fps=177 q=-0.0 size=N/A time=00:00:34.36 bitrate=N/A speed=7.36x    frame=  914 fps=177 q=-0.0 size=N/A time=00:00:38.12 bitrate=N/A speed=7.37x    frame= 1006 fps=177 q=-0.0 size=N/A time=00:00:41.95 bitrate=N/A speed=7.37x    frame= 1102 fps=177 q=-0.0 size=N/A time=00:00:45.96 bitrate=N/A speed= 7.4x    frame= 1182 fps=176 q=-0.0 size=N/A time=00:00:49.29 bitrate=N/A speed=7.34x    frame= 1278 fps=177 q=-0.0 size=N/A time=00:00:53.30 bitrate=N/A speed=7.36x    frame= 1376 fps=177 q=-0.0 size=N/A time=00:00:57.39 bitrate=N/A speed= 7.4x    frame= 1467 fps=177 q=-0.0 size=N/A time=00:01:01.18 bitrate=N/A speed= 7.4x    frame= 1557 fps=177 q=-0.0 size=N/A time=00:01:04.93 bitrate=N/A speed=7.39x    frame= 1651 fps=177 q=-0.0 size=N/A time=00:01:08.86 bitrate=N/A speed= 7.4x    frame= 1741 fps=177 q=-0.0 size=N/A time=00:01:12.61 bitrate=N/A speed= 7.4x    frame= 1838 fps=178 q=-0.0 size=N/A time=00:01:16.65 bitrate=N/A speed=7.41x    frame= 1932 fps=178 q=-0.0 size=N/A time=00:01:20.58 bitrate=N/A speed=7.42x    frame= 2029 fps=178 q=-0.0 size=N/A time=00:01:24.62 bitrate=N/A speed=7.43x    frame= 2122 fps=178 q=-0.0 size=N/A time=00:01:28.50 bitrate=N/A speed=7.44x    frame= 2215 fps=178 q=-0.0 size=N/A time=00:01:32.38 bitrate=N/A speed=7.44x    frame= 2306 fps=178 q=-0.0 size=N/A time=00:01:36.17 bitrate=N/A speed=7.44x    frame= 2404 fps=179 q=-0.0 size=N/A time=00:01:40.26 bitrate=N/A speed=7.46x    frame= 2495 fps=179 q=-0.0 size=N/A time=00:01:44.06 bitrate=N/A speed=7.45x    frame= 2590 fps=179 q=-0.0 size=N/A time=00:01:48.02 bitrate=N/A speed=7.46x    frame= 2680 fps=179 q=-0.0 size=N/A time=00:01:51.77 bitrate=N/A speed=7.46x    frame= 2774 fps=179 q=-0.0 size=N/A time=00:01:55.69 bitrate=N/A speed=7.46x    frame= 2871 fps=179 q=-0.0 size=N/A time=00:01:59.74 bitrate=N/A speed=7.47x    frame= 2958 fps=179 q=-0.0 size=N/A time=00:02:03.37 bitrate=N/A speed=7.46x    frame= 3058 fps=179 q=-0.0 size=N/A time=00:02:07.54 bitrate=N/A speed=7.48x    frame= 3153 fps=179 q=-0.0 size=N/A time=00:02:11.50 bitrate=N/A speed=7.48x    frame= 3246 fps=179 q=-0.0 size=N/A time=00:02:15.38 bitrate=N/A speed=7.48x    frame= 3337 fps=179 q=-0.0 size=N/A time=00:02:19.18 bitrate=N/A speed=7.48x    frame= 3436 fps=180 q=-0.0 size=N/A time=00:02:23.30 bitrate=N/A speed=7.49x    frame= 3532 fps=180 q=-0.0 size=N/A time=00:02:27.31 bitrate=N/A speed= 7.5x    frame= 3625 fps=180 q=-0.0 size=N/A time=00:02:31.19 bitrate=N/A speed= 7.5x    frame= 3709 fps=179 q=-0.0 size=N/A time=00:02:34.69 bitrate=N/A speed=7.48x    frame= 3812 fps=180 q=-0.0 size=N/A time=00:02:38.99 bitrate=N/A speed= 7.5x    frame= 3906 fps=180 q=-0.0 size=N/A time=00:02:42.91 bitrate=N/A speed= 7.5x    frame= 3997 fps=180 q=-0.0 size=N/A time=00:02:46.70 bitrate=N/A speed= 7.5x    frame= 4092 fps=180 q=-0.0 size=N/A time=00:02:50.67 bitrate=N/A speed= 7.5x    frame= 4184 fps=180 q=-0.0 size=N/A time=00:02:54.50 bitrate=N/A speed= 7.5x    frame= 4271 fps=180 q=-0.0 size=N/A time=00:02:58.13 bitrate=N/A speed=7.49x    frame= 4363 fps=180 q=-0.0 size=N/A time=00:03:01.97 bitrate=N/A speed=7.49x    frame= 4457 fps=180 q=-0.0 size=N/A time=00:03:05.89 bitrate=N/A speed=7.49x    frame= 4553 fps=180 q=-0.0 size=N/A time=00:03:09.89 bitrate=N/A speed= 7.5x    frame= 4643 fps=180 q=-0.0 size=N/A time=00:03:13.65 bitrate=N/A speed= 7.5x    frame= 4731 fps=180 q=-0.0 size=N/A time=00:03:17.32 bitrate=N/A speed=7.49x    frame= 4826 fps=180 q=-0.0 size=N/A time=00:03:21.28 bitrate=N/A speed=7.49x    frame= 4910 fps=179 q=-0.0 size=N/A time=00:03:24.78 bitrate=N/A speed=7.48x    frame= 5006 fps=179 q=-0.0 size=N/A time=00:03:28.79 bitrate=N/A speed=7.48x    frame= 5102 fps=180 q=-0.0 size=N/A time=00:03:32.79 bitrate=N/A speed=7.49x    frame= 5197 fps=180 q=-0.0 size=N/A time=00:03:36.75 bitrate=N/A speed=7.49x    frame= 5281 fps=179 q=-0.0 size=N/A time=00:03:40.26 bitrate=N/A speed=7.48x    frame= 5376 fps=179 q=-0.0 size=N/A time=00:03:44.22 bitrate=N/A speed=7.49x    frame= 5473 fps=180 q=-0.0 size=N/A time=00:03:48.26 bitrate=N/A speed=7.49x    frame= 5567 fps=180 q=-0.0 size=N/A time=00:03:52.19 bitrate=N/A speed=7.49x    frame= 5662 fps=180 q=-0.0 size=N/A time=00:03:56.15 bitrate=N/A speed= 7.5x    frame= 5747 fps=179 q=-0.0 size=N/A time=00:03:59.69 bitrate=N/A speed=7.48x    frame= 5838 fps=179 q=-0.0 size=N/A time=00:04:03.49 bitrate=N/A speed=7.49x    frame= 5933 fps=180 q=-0.0 size=N/A time=00:04:07.45 bitrate=N/A speed=7.49x    frame= 6027 fps=180 q=-0.0 size=N/A time=00:04:11.37 bitrate=N/A speed=7.49x    frame= 6118 fps=180 q=-0.0 size=N/A time=00:04:15.17 bitrate=N/A speed=7.49x    frame= 6203 fps=179 q=-0.0 size=N/A time=00:04:18.71 bitrate=N/A speed=7.48x    frame= 6303 fps=180 q=-0.0 size=N/A time=00:04:22.88 bitrate=N/A speed=7.49x    frame= 6397 fps=180 q=-0.0 size=N/A time=00:04:26.80 bitrate=N/A speed=7.49x    frame= 6494 fps=180 q=-0.0 size=N/A time=00:04:30.85 bitrate=N/A speed=7.49x    frame= 6590 fps=180 q=-0.0 size=N/A time=00:04:34.85 bitrate=N/A speed= 7.5x    frame= 6682 fps=180 q=-0.0 size=N/A time=00:04:38.69 bitrate=N/A speed= 7.5x    frame= 6776 fps=180 q=-0.0 size=N/A time=00:04:42.61 bitrate=N/A speed= 7.5x    frame= 6871 fps=180 q=-0.0 size=N/A time=00:04:46.57 bitrate=N/A speed= 7.5x    frame= 6953 fps=180 q=-0.0 size=N/A time=00:04:49.99 bitrate=N/A speed=7.49x    frame= 7055 fps=180 q=-0.0 size=N/A time=00:04:54.25 bitrate=N/A speed= 7.5x    frame= 7152 fps=180 q=-0.0 size=N/A time=00:04:58.29 bitrate=N/A speed= 7.5x    frame= 7248 fps=180 q=-0.0 size=N/A time=00:05:02.30 bitrate=N/A speed=7.51x    frame= 7341 fps=180 q=-0.0 size=N/A time=00:05:06.18 bitrate=N/A speed=7.51x    frame= 7424 fps=180 q=-0.0 size=N/A time=00:05:09.64 bitrate=N/A speed=7.49x    frame= 7521 fps=180 q=-0.0 size=N/A time=00:05:13.68 bitrate=N/A speed= 7.5x    frame= 7608 fps=180 q=-0.0 size=N/A time=00:05:17.31 bitrate=N/A speed=7.49x    frame= 7703 fps=180 q=-0.0 size=N/A time=00:05:21.27 bitrate=N/A speed=7.49x    frame= 7794 fps=180 q=-0.0 size=N/A time=00:05:25.07 bitrate=N/A speed=7.49x    frame= 7889 fps=180 q=-0.0 size=N/A time=00:05:29.03 bitrate=N/A speed= 7.5x    frame= 7983 fps=180 q=-0.0 size=N/A time=00:05:32.95 bitrate=N/A speed= 7.5x    frame= 8077 fps=180 q=-0.0 size=N/A time=00:05:36.87 bitrate=N/A speed= 7.5x    frame= 8169 fps=180 q=-0.0 size=N/A time=00:05:40.71 bitrate=N/A speed= 7.5x    frame= 8263 fps=180 q=-0.0 size=N/A time=00:05:44.63 bitrate=N/A speed= 7.5x    frame= 8355 fps=180 q=-0.0 size=N/A time=00:05:48.47 bitrate=N/A speed= 7.5x    frame= 8441 fps=180 q=-0.0 size=N/A time=00:05:52.06 bitrate=N/A speed=7.49x    frame= 8522 fps=179 q=-0.0 size=N/A time=00:05:55.43 bitrate=N/A speed=7.48x    frame= 8631 fps=180 q=-0.0 size=N/A time=00:05:59.98 bitrate=N/A speed= 7.5x    frame= 8714 fps=180 q=-0.0 size=N/A time=00:06:03.44 bitrate=N/A speed=7.49x    frame= 8810 fps=180 q=-0.0 size=N/A time=00:06:07.45 bitrate=N/A speed=7.49x    frame= 8913 fps=180 q=-0.0 size=N/A time=00:06:11.74 bitrate=N/A speed= 7.5x    frame= 9005 fps=180 q=-0.0 size=N/A time=00:06:15.58 bitrate=N/A speed= 7.5x    frame= 9099 fps=180 q=-0.0 size=N/A time=00:06:19.50 bitrate=N/A speed= 7.5x    frame= 9191 fps=180 q=-0.0 size=N/A time=00:06:23.34 bitrate=N/A speed= 7.5x    frame= 9286 fps=180 q=-0.0 size=N/A time=00:06:27.30 bitrate=N/A speed= 7.5x    frame= 9380 fps=180 q=-0.0 size=N/A time=00:06:31.22 bitrate=N/A speed= 7.5x    frame= 9470 fps=180 q=-0.0 size=N/A time=00:06:34.97 bitrate=N/A speed= 7.5x    frame= 9554 fps=180 q=-0.0 size=N/A time=00:06:38.48 bitrate=N/A speed=7.49x    frame= 9651 fps=180 q=-0.0 size=N/A time=00:06:42.52 bitrate=N/A speed= 7.5x    frame= 9747 fps=180 q=-0.0 size=N/A time=00:06:46.53 bitrate=N/A speed= 7.5x    frame= 9843 fps=180 q=-0.0 size=N/A time=00:06:50.53 bitrate=N/A speed= 7.5x    frame= 9939 fps=180 q=-0.0 size=N/A time=00:06:54.53 bitrate=N/A speed= 7.5x    frame=10029 fps=180 q=-0.0 size=N/A time=00:06:58.29 bitrate=N/A speed= 7.5x    frame=10113 fps=180 q=-0.0 size=N/A time=00:07:01.79 bitrate=N/A speed= 7.5x    frame=10219 fps=180 q=-0.0 size=N/A time=00:07:06.21 bitrate=N/A speed= 7.5x    frame=10307 fps=180 q=-0.0 size=N/A time=00:07:09.88 bitrate=N/A speed= 7.5x    frame=10406 fps=180 q=-0.0 size=N/A time=00:07:14.01 bitrate=N/A speed=7.51x    frame=10499 fps=180 q=-0.0 size=N/A time=00:07:17.89 bitrate=N/A speed=7.51x    frame=10587 fps=180 q=-0.0 size=N/A time=00:07:21.56 bitrate=N/A speed= 7.5x    frame=10670 fps=180 q=-0.0 size=N/A time=00:07:25.02 bitrate=N/A speed= 7.5x    frame=10772 fps=180 q=-0.0 size=N/A time=00:07:29.28 bitrate=N/A speed= 7.5x    frame=10858 fps=180 q=-0.0 size=N/A time=00:07:32.86 bitrate=N/A speed= 7.5x    frame=10960 fps=180 q=-0.0 size=N/A time=00:07:37.12 bitrate=N/A speed= 7.5x    frame=11049 fps=180 q=-0.0 size=N/A time=00:07:40.83 bitrate=N/A speed= 7.5x    frame=11149 fps=180 q=-0.0 size=N/A time=00:07:45.00 bitrate=N/A speed=7.51x    frame=11237 fps=180 q=-0.0 size=N/A time=00:07:48.67 bitrate=N/A speed= 7.5x    frame=11335 fps=180 q=-0.0 size=N/A time=00:07:52.76 bitrate=N/A speed=7.51x    frame=11426 fps=180 q=-0.0 size=N/A time=00:07:56.55 bitrate=N/A speed=7.51x    frame=11515 fps=180 q=-0.0 size=N/A time=00:08:00.27 bitrate=N/A speed= 7.5x    frame=11609 fps=180 q=-0.0 size=N/A time=00:08:04.19 bitrate=N/A speed= 7.5x    frame=11694 fps=180 q=-0.0 size=N/A time=00:08:07.73 bitrate=N/A speed= 7.5x    frame=11788 fps=180 q=-0.0 size=N/A time=00:08:11.65 bitrate=N/A speed= 7.5x    frame=11878 fps=180 q=-0.0 size=N/A time=00:08:15.41 bitrate=N/A speed= 7.5x    frame=11973 fps=180 q=-0.0 size=N/A time=00:08:19.37 bitrate=N/A speed= 7.5x    frame=12069 fps=180 q=-0.0 size=N/A time=00:08:23.37 bitrate=N/A speed= 7.5x    frame=12148 fps=180 q=-0.0 size=N/A time=00:08:26.67 bitrate=N/A speed=7.49x    frame=12252 fps=180 q=-0.0 size=N/A time=00:08:31.01 bitrate=N/A speed= 7.5x    frame=12342 fps=180 q=-0.0 size=N/A time=00:08:34.76 bitrate=N/A speed= 7.5x    frame=12438 fps=180 q=-0.0 size=N/A time=00:08:38.76 bitrate=N/A speed= 7.5x    frame=12519 fps=180 q=-0.0 size=N/A time=00:08:42.14 bitrate=N/A speed=7.49x    frame=12622 fps=180 q=-0.0 size=N/A time=00:08:46.44 bitrate=N/A speed= 7.5x    frame=12715 fps=180 q=-0.0 size=N/A time=00:08:50.32 bitrate=N/A speed= 7.5x    frame=12806 fps=180 q=-0.0 size=N/A time=00:08:54.11 bitrate=N/A speed= 7.5x    frame=12898 fps=180 q=-0.0 size=N/A time=00:08:57.95 bitrate=N/A speed= 7.5x    frame=12994 fps=180 q=-0.0 size=N/A time=00:09:01.95 bitrate=N/A speed= 7.5x    frame=13082 fps=180 q=-0.0 size=N/A time=00:09:05.62 bitrate=N/A speed= 7.5x    frame=13177 fps=180 q=-0.0 size=N/A time=00:09:09.59 bitrate=N/A speed= 7.5x    frame=13271 fps=180 q=-0.0 size=N/A time=00:09:13.51 bitrate=N/A speed= 7.5x    frame=13365 fps=180 q=-0.0 size=N/A time=00:09:17.43 bitrate=N/A speed= 7.5x    frame=13459 fps=180 q=-0.0 size=N/A time=00:09:21.35 bitrate=N/A speed= 7.5x    frame=13539 fps=180 q=-0.0 size=N/A time=00:09:24.68 bitrate=N/A speed=7.49x    frame=13647 fps=180 q=-0.0 size=N/A time=00:09:29.19 bitrate=N/A speed= 7.5x    frame=13731 fps=180 q=-0.0 size=N/A time=00:09:32.69 bitrate=N/A speed= 7.5x    frame=13824 fps=180 q=-0.0 size=N/A time=00:09:36.57 bitrate=N/A speed= 7.5x    frame=13920 fps=180 q=-0.0 size=N/A time=00:09:40.58 bitrate=N/A speed= 7.5x    frame=14009 fps=180 q=-0.0 size=N/A time=00:09:44.29 bitrate=N/A speed= 7.5x    frame=14108 fps=180 q=-0.0 size=N/A time=00:09:48.42 bitrate=N/A speed= 7.5x    frame=14193 fps=180 q=-0.0 size=N/A time=00:09:51.96 bitrate=N/A speed= 7.5x    frame=14292 fps=180 q=-0.0 size=N/A time=00:09:56.09 bitrate=N/A speed= 7.5x    frame=14384 fps=180 q=-0.0 size=N/A time=00:09:59.93 bitrate=N/A speed= 7.5x    frame=14483 fps=180 q=-0.0 size=N/A time=00:10:04.06 bitrate=N/A speed= 7.5x    frame=14573 fps=180 q=-0.0 size=N/A time=00:10:07.81 bitrate=N/A speed= 7.5x    frame=14673 fps=180 q=-0.0 size=N/A time=00:10:11.98 bitrate=N/A speed=7.51x    frame=14766 fps=180 q=-0.0 size=N/A time=00:10:15.86 bitrate=N/A speed=7.51x    frame=14860 fps=180 q=-0.0 size=N/A time=00:10:19.78 bitrate=N/A speed=7.51x    frame=14944 fps=180 q=-0.0 size=N/A time=00:10:23.28 bitrate=N/A speed= 7.5x    frame=15037 fps=180 q=-0.0 size=N/A time=00:10:27.16 bitrate=N/A speed= 7.5x    frame=15123 fps=180 q=-0.0 size=N/A time=00:10:30.75 bitrate=N/A speed= 7.5x    frame=15224 fps=180 q=-0.0 size=N/A time=00:10:34.96 bitrate=N/A speed= 7.5x    frame=15316 fps=180 q=-0.0 size=N/A time=00:10:38.80 bitrate=N/A speed= 7.5x    frame=15410 fps=180 q=-0.0 size=N/A time=00:10:42.72 bitrate=N/A speed= 7.5x    frame=15504 fps=180 q=-0.0 size=N/A time=00:10:46.64 bitrate=N/A speed= 7.5x    frame=15598 fps=180 q=-0.0 size=N/A time=00:10:50.56 bitrate=N/A speed= 7.5x    frame=15676 fps=180 q=-0.0 size=N/A time=00:10:53.81 bitrate=N/A speed= 7.5x    frame=15785 fps=180 q=-0.0 size=N/A time=00:10:58.36 bitrate=N/A speed= 7.5x    frame=15878 fps=180 q=-0.0 size=N/A time=00:11:02.24 bitrate=N/A speed=7.51x    frame=15972 fps=180 q=-0.0 size=N/A time=00:11:06.16 bitrate=N/A speed=7.51x    frame=16058 fps=180 q=-0.0 size=N/A time=00:11:09.75 bitrate=N/A speed= 7.5x    frame=16152 fps=180 q=-0.0 size=N/A time=00:11:13.67 bitrate=N/A speed= 7.5x    frame=16241 fps=180 q=-0.0 size=N/A time=00:11:17.38 bitrate=N/A speed= 7.5x    frame=16337 fps=180 q=-0.0 size=N/A time=00:11:21.38 bitrate=N/A speed= 7.5x    frame=16431 fps=180 q=-0.0 size=N/A time=00:11:25.30 bitrate=N/A speed= 7.5x    frame=16518 fps=180 q=-0.0 size=N/A time=00:11:28.93 bitrate=N/A speed= 7.5x    frame=16614 fps=180 q=-0.0 size=N/A time=00:11:32.94 bitrate=N/A speed= 7.5x    frame=16696 fps=180 q=-0.0 size=N/A time=00:11:36.36 bitrate=N/A speed= 7.5x    frame=16802 fps=180 q=-0.0 size=N/A time=00:11:40.78 bitrate=N/A speed= 7.5x    frame=16897 fps=180 q=-0.0 size=N/A time=00:11:44.74 bitrate=N/A speed= 7.5x    frame=16989 fps=180 q=-0.0 size=N/A time=00:11:48.58 bitrate=N/A speed= 7.5x    frame=17076 fps=180 q=-0.0 size=N/A time=00:11:52.21 bitrate=N/A speed= 7.5x    frame=17167 fps=180 q=-0.0 size=N/A time=00:11:56.00 bitrate=N/A speed= 7.5x    frame=17262 fps=180 q=-0.0 size=N/A time=00:11:59.96 bitrate=N/A speed= 7.5x    frame=17346 fps=180 q=-0.0 size=N/A time=00:12:03.47 bitrate=N/A speed= 7.5x    frame=17441 fps=180 q=-0.0 size=N/A time=00:12:07.43 bitrate=N/A speed= 7.5x    frame=17530 fps=180 q=-0.0 size=N/A time=00:12:11.14 bitrate=N/A speed= 7.5x    frame=17609 fps=180 q=-0.0 size=N/A time=00:12:14.44 bitrate=N/A speed=7.49x    frame=17715 fps=180 q=-0.0 size=N/A time=00:12:18.86 bitrate=N/A speed= 7.5x    frame=17803 fps=180 q=-0.0 size=N/A time=00:12:22.53 bitrate=N/A speed=7.49x    frame=17901 fps=180 q=-0.0 size=N/A time=00:12:26.62 bitrate=N/A speed= 7.5x    frame=17995 fps=180 q=-0.0 size=N/A time=00:12:30.54 bitrate=N/A speed= 7.5x    frame=18088 fps=180 q=-0.0 size=N/A time=00:12:34.42 bitrate=N/A speed= 7.5x    frame=18174 fps=180 q=-0.0 size=N/A time=00:12:38.00 bitrate=N/A speed= 7.5x    frame=18279 fps=180 q=-0.0 size=N/A time=00:12:42.38 bitrate=N/A speed= 7.5x    frame=18370 fps=180 q=-0.0 size=N/A time=00:12:46.18 bitrate=N/A speed= 7.5x    frame=18456 fps=180 q=-0.0 size=N/A time=00:12:49.76 bitrate=N/A speed= 7.5x    frame=18550 fps=180 q=-0.0 size=N/A time=00:12:53.68 bitrate=N/A speed= 7.5x    frame=18650 fps=180 q=-0.0 size=N/A time=00:12:57.86 bitrate=N/A speed= 7.5x    frame=18738 fps=180 q=-0.0 size=N/A time=00:13:01.53 bitrate=N/A speed= 7.5x    frame=18837 fps=180 q=-0.0 size=N/A time=00:13:05.65 bitrate=N/A speed= 7.5x    frame=18931 fps=180 q=-0.0 size=N/A time=00:13:09.58 bitrate=N/A speed= 7.5x    frame=19025 fps=180 q=-0.0 size=N/A time=00:13:13.50 bitrate=N/A speed= 7.5x    frame=19112 fps=180 q=-0.0 size=N/A time=00:13:17.12 bitrate=N/A speed= 7.5x    frame=19212 fps=180 q=-0.0 size=N/A time=00:13:21.30 bitrate=N/A speed= 7.5x    frame=19304 fps=180 q=-0.0 size=N/A time=00:13:25.13 bitrate=N/A speed= 7.5x    frame=19401 fps=180 q=-0.0 size=N/A time=00:13:29.18 bitrate=N/A speed= 7.5x    frame=19493 fps=180 q=-0.0 size=N/A time=00:13:33.02 bitrate=N/A speed= 7.5x    frame=19588 fps=180 q=-0.0 size=N/A time=00:13:36.98 bitrate=N/A speed= 7.5x    frame=19681 fps=180 q=-0.0 size=N/A time=00:13:40.86 bitrate=N/A speed= 7.5x    frame=19767 fps=180 q=-0.0 size=N/A time=00:13:44.44 bitrate=N/A speed= 7.5x    frame=19869 fps=180 q=-0.0 size=N/A time=00:13:48.70 bitrate=N/A speed= 7.5x    frame=19963 fps=180 q=-0.0 size=N/A time=00:13:52.62 bitrate=N/A speed= 7.5x    frame=20058 fps=180 q=-0.0 size=N/A time=00:13:56.58 bitrate=N/A speed=7.51x    frame=20152 fps=180 q=-0.0 size=N/A time=00:14:00.50 bitrate=N/A speed=7.51x    frame=20246 fps=180 q=-0.0 size=N/A time=00:14:04.42 bitrate=N/A speed=7.51x    frame=20331 fps=180 q=-0.0 size=N/A time=00:14:07.97 bitrate=N/A speed= 7.5x    frame=20435 fps=180 q=-0.0 size=N/A time=00:14:12.30 bitrate=N/A speed=7.51x    frame=20523 fps=180 q=-0.0 size=N/A time=00:14:15.98 bitrate=N/A speed=7.51x    frame=20624 fps=180 q=-0.0 size=N/A time=00:14:20.19 bitrate=N/A speed=7.51x    frame=20713 fps=180 q=-0.0 size=N/A time=00:14:23.90 bitrate=N/A speed=7.51x    frame=20812 fps=180 q=-0.0 size=N/A time=00:14:28.03 bitrate=N/A speed=7.51x    frame=20905 fps=180 q=-0.0 size=N/A time=00:14:31.91 bitrate=N/A speed=7.51x    frame=21000 fps=180 q=-0.0 size=N/A time=00:14:35.87 bitrate=N/A speed=7.51x    frame=21088 fps=180 q=-0.0 size=N/A time=00:14:39.54 bitrate=N/A speed=7.51x    frame=21189 fps=180 q=-0.0 size=N/A time=00:14:43.75 bitrate=N/A speed=7.51x    frame=21280 fps=180 q=-0.0 size=N/A time=00:14:47.55 bitrate=N/A speed=7.51x    frame=21376 fps=180 q=-0.0 size=N/A time=00:14:51.55 bitrate=N/A speed=7.51x    frame=21471 fps=180 q=-0.0 size=N/A time=00:14:55.51 bitrate=N/A speed=7.51x    frame=21565 fps=180 q=-0.0 size=N/A time=00:14:59.44 bitrate=N/A speed=7.51x    frame=21655 fps=180 q=-0.0 size=N/A time=00:15:03.19 bitrate=N/A speed=7.51x    frame=21749 fps=180 q=-0.0 size=N/A time=00:15:07.11 bitrate=N/A speed=7.51x    frame=21838 fps=180 q=-0.0 size=N/A time=00:15:10.82 bitrate=N/A speed=7.51x    frame=21936 fps=180 q=-0.0 size=N/A time=00:15:14.91 bitrate=N/A speed=7.51x    frame=22032 fps=180 q=-0.0 size=N/A time=00:15:18.91 bitrate=N/A speed=7.51x    frame=22115 fps=180 q=-0.0 size=N/A time=00:15:22.37 bitrate=N/A speed=7.51x    frame=22213 fps=180 q=-0.0 size=N/A time=00:15:26.46 bitrate=N/A speed=7.51x    frame=22299 fps=180 q=-0.0 size=N/A time=00:15:30.05 bitrate=N/A speed=7.51x    frame=22399 fps=180 q=-0.0 size=N/A time=00:15:34.22 bitrate=N/A speed=7.51x    frame=22492 fps=180 q=-0.0 size=N/A time=00:15:38.10 bitrate=N/A speed=7.51x    frame=22586 fps=180 q=-0.0 size=N/A time=00:15:42.02 bitrate=N/A speed=7.51x    frame=22677 fps=180 q=-0.0 size=N/A time=00:15:45.81 bitrate=N/A speed=7.51x    frame=22775 fps=180 q=-0.0 size=N/A time=00:15:49.90 bitrate=N/A speed=7.51x    frame=22870 fps=180 q=-0.0 size=N/A time=00:15:53.86 bitrate=N/A speed=7.52x    frame=22963 fps=180 q=-0.0 size=N/A time=00:15:57.74 bitrate=N/A speed=7.51x    frame=23052 fps=180 q=-0.0 size=N/A time=00:16:01.46 bitrate=N/A speed=7.51x    frame=23152 fps=180 q=-0.0 size=N/A time=00:16:05.63 bitrate=N/A speed=7.52x    frame=23238 fps=180 q=-0.0 size=N/A time=00:16:09.21 bitrate=N/A speed=7.51x    frame=23330 fps=180 q=-0.0 size=N/A time=00:16:13.05 bitrate=N/A speed=7.51x    frame=23425 fps=180 q=-0.0 size=N/A time=00:16:17.01 bitrate=N/A speed=7.51x    frame=23521 fps=180 q=-0.0 size=N/A time=00:16:21.02 bitrate=N/A speed=7.51x    frame=23612 fps=180 q=-0.0 size=N/A time=00:16:24.81 bitrate=N/A speed=7.51x    frame=23712 fps=180 q=-0.0 size=N/A time=00:16:28.98 bitrate=N/A speed=7.52x    frame=23808 fps=180 q=-0.0 size=N/A time=00:16:32.99 bitrate=N/A speed=7.52x    frame=23900 fps=180 q=-0.0 size=N/A time=00:16:36.82 bitrate=N/A speed=7.52x    frame=23993 fps=180 q=-0.0 size=N/A time=00:16:40.70 bitrate=N/A speed=7.52x    frame=24087 fps=180 q=-0.0 size=N/A time=00:16:44.62 bitrate=N/A speed=7.52x    frame=24173 fps=180 q=-0.0 size=N/A time=00:16:48.21 bitrate=N/A speed=7.51x    frame=24267 fps=180 q=-0.0 size=N/A time=00:16:52.13 bitrate=N/A speed=7.52x    frame=24363 fps=180 q=-0.0 size=N/A time=00:16:56.14 bitrate=N/A speed=7.52x    frame=24447 fps=180 q=-0.0 size=N/A time=00:16:59.64 bitrate=N/A speed=7.51x    frame=24546 fps=180 q=-0.0 size=N/A time=00:17:03.77 bitrate=N/A speed=7.52x    frame=24643 fps=180 q=-0.0 size=N/A time=00:17:07.81 bitrate=N/A speed=7.52x    frame=24738 fps=180 q=-0.0 size=N/A time=00:17:11.78 bitrate=N/A speed=7.52x    frame=24825 fps=180 q=-0.0 size=N/A time=00:17:15.40 bitrate=N/A speed=7.52x    frame=24918 fps=180 q=-0.0 size=N/A time=00:17:19.28 bitrate=N/A speed=7.52x    frame=25004 fps=180 q=-0.0 size=N/A time=00:17:22.87 bitrate=N/A speed=7.51x    frame=25107 fps=180 q=-0.0 size=N/A time=00:17:27.17 bitrate=N/A speed=7.52x    frame=25200 fps=180 q=-0.0 size=N/A time=00:17:31.05 bitrate=N/A speed=7.52x    frame=25285 fps=180 q=-0.0 size=N/A time=00:17:34.59 bitrate=N/A speed=7.51x    frame=25381 fps=180 q=-0.0 size=N/A time=00:17:38.59 bitrate=N/A speed=7.52x    frame=25476 fps=180 q=-0.0 size=N/A time=00:17:42.56 bitrate=N/A speed=7.52x    frame=25569 fps=180 q=-0.0 size=N/A time=00:17:46.44 bitrate=N/A speed=7.52x    frame=25663 fps=180 q=-0.0 size=N/A time=00:17:50.36 bitrate=N/A speed=7.52x    frame=25752 fps=180 q=-0.0 size=N/A time=00:17:54.07 bitrate=N/A speed=7.52x    frame=25850 fps=180 q=-0.0 size=N/A time=00:17:58.16 bitrate=N/A speed=7.52x    frame=25938 fps=180 q=-0.0 size=N/A time=00:18:01.83 bitrate=N/A speed=7.51x    frame=26031 fps=180 q=-0.0 size=N/A time=00:18:05.70 bitrate=N/A speed=7.52x    frame=26125 fps=180 q=-0.0 size=N/A time=00:18:09.63 bitrate=N/A speed=7.52x    frame=26216 fps=180 q=-0.0 size=N/A time=00:18:13.42 bitrate=N/A speed=7.51x    frame=26304 fps=180 q=-0.0 size=N/A time=00:18:17.09 bitrate=N/A speed=7.51x    frame=26405 fps=180 q=-0.0 size=N/A time=00:18:21.30 bitrate=N/A speed=7.52x    frame=26496 fps=180 q=-0.0 size=N/A time=00:18:25.10 bitrate=N/A speed=7.51x    frame=26588 fps=180 q=-0.0 size=N/A time=00:18:28.94 bitrate=N/A speed=7.51x    frame=26681 fps=180 q=-0.0 size=N/A time=00:18:32.82 bitrate=N/A speed=7.51x    frame=26777 fps=180 q=-0.0 size=N/A time=00:18:36.82 bitrate=N/A speed=7.52x    frame=26870 fps=180 q=-0.0 size=N/A time=00:18:40.70 bitrate=N/A speed=7.52x    frame=26960 fps=180 q=-0.0 size=N/A time=00:18:44.45 bitrate=N/A speed=7.51x    frame=27053 fps=180 q=-0.0 size=N/A time=00:18:48.33 bitrate=N/A speed=7.51x    frame=27133 fps=180 q=-0.0 size=N/A time=00:18:51.67 bitrate=N/A speed=7.51x    frame=27242 fps=180 q=-0.0 size=N/A time=00:18:56.21 bitrate=N/A speed=7.52x    frame=27336 fps=180 q=-0.0 size=N/A time=00:19:00.13 bitrate=N/A speed=7.52x    frame=27424 fps=180 q=-0.0 size=N/A time=00:19:03.80 bitrate=N/A speed=7.51x    frame=27516 fps=180 q=-0.0 size=N/A time=00:19:07.64 bitrate=N/A speed=7.51x    frame=27608 fps=180 q=-0.0 size=N/A time=00:19:11.48 bitrate=N/A speed=7.51x    frame=27693 fps=180 q=-0.0 size=N/A time=00:19:15.02 bitrate=N/A speed=7.51x    frame=27789 fps=180 q=-0.0 size=N/A time=00:19:19.03 bitrate=N/A speed=7.51x    frame=27883 fps=180 q=-0.0 size=N/A time=00:19:22.95 bitrate=N/A speed=7.51x    frame=27977 fps=180 q=-0.0 size=N/A time=00:19:26.87 bitrate=N/A speed=7.51x    frame=28065 fps=180 q=-0.0 size=N/A time=00:19:30.54 bitrate=N/A speed=7.51x    frame=28150 fps=180 q=-0.0 size=N/A time=00:19:34.08 bitrate=N/A speed=7.51x    frame=28253 fps=180 q=-0.0 size=N/A time=00:19:38.38 bitrate=N/A speed=7.51x    frame=28345 fps=180 q=-0.0 size=N/A time=00:19:42.22 bitrate=N/A speed=7.51x    frame=28437 fps=180 q=-0.0 size=N/A time=00:19:46.05 bitrate=N/A speed=7.51x    frame=28527 fps=180 q=-0.0 size=N/A time=00:19:49.81 bitrate=N/A speed=7.51x    frame=28614 fps=180 q=-0.0 size=N/A time=00:19:53.44 bitrate=N/A speed=7.51x    frame=28707 fps=180 q=-0.0 size=N/A time=00:19:57.32 bitrate=N/A speed=7.51x    frame=28802 fps=180 q=-0.0 size=N/A time=00:20:01.28 bitrate=N/A speed=7.51x    frame=28891 fps=180 q=-0.0 size=N/A time=00:20:04.99 bitrate=N/A speed=7.51x    frame=28990 fps=180 q=-0.0 size=N/A time=00:20:09.12 bitrate=N/A speed=7.51x    frame=29082 fps=180 q=-0.0 size=N/A time=00:20:12.96 bitrate=N/A speed=7.51x    frame=29163 fps=180 q=-0.0 size=N/A time=00:20:16.34 bitrate=N/A speed=7.51x    frame=29258 fps=180 q=-0.0 size=N/A time=00:20:20.30 bitrate=N/A speed=7.51x    frame=29353 fps=180 q=-0.0 size=N/A time=00:20:24.26 bitrate=N/A speed=7.51x    frame=29454 fps=180 q=-0.0 size=N/A time=00:20:28.47 bitrate=N/A speed=7.51x    frame=29549 fps=180 q=-0.0 size=N/A time=00:20:32.43 bitrate=N/A speed=7.51x    frame=29637 fps=180 q=-0.0 size=N/A time=00:20:36.10 bitrate=N/A speed=7.51x    frame=29729 fps=180 q=-0.0 size=N/A time=00:20:39.94 bitrate=N/A speed=7.51x    frame=29817 fps=180 q=-0.0 size=N/A time=00:20:43.61 bitrate=N/A speed=7.51x    frame=29915 fps=180 q=-0.0 size=N/A time=00:20:47.70 bitrate=N/A speed=7.51x    frame=30011 fps=180 q=-0.0 size=N/A time=00:20:51.70 bitrate=N/A speed=7.51x    frame=30103 fps=180 q=-0.0 size=N/A time=00:20:55.54 bitrate=N/A speed=7.51x    frame=30191 fps=180 q=-0.0 size=N/A time=00:20:59.21 bitrate=N/A speed=7.51x    frame=30286 fps=180 q=-0.0 size=N/A time=00:21:03.17 bitrate=N/A speed=7.51x    frame=30367 fps=180 q=-0.0 size=N/A time=00:21:06.55 bitrate=N/A speed=7.51x    frame=30473 fps=180 q=-0.0 size=N/A time=00:21:10.97 bitrate=N/A speed=7.51x    frame=30559 fps=180 q=-0.0 size=N/A time=00:21:14.56 bitrate=N/A speed=7.51x    frame=30662 fps=180 q=-0.0 size=N/A time=00:21:18.86 bitrate=N/A speed=7.51x    frame=30743 fps=180 q=-0.0 size=N/A time=00:21:22.23 bitrate=N/A speed=7.51x    frame=30842 fps=180 q=-0.0 size=N/A time=00:21:26.36 bitrate=N/A speed=7.51x    frame=30936 fps=180 q=-0.0 size=N/A time=00:21:30.28 bitrate=N/A speed=7.51x    frame=31029 fps=180 q=-0.0 size=N/A time=00:21:34.16 bitrate=N/A speed=7.51x    frame=31122 fps=180 q=-0.0 size=N/A time=00:21:38.04 bitrate=N/A speed=7.51x    frame=31212 fps=180 q=-0.0 size=N/A time=00:21:41.80 bitrate=N/A speed=7.51x    frame=31300 fps=180 q=-0.0 size=N/A time=00:21:45.47 bitrate=N/A speed=7.51x    frame=31382 fps=180 q=-0.0 size=N/A time=00:21:48.89 bitrate=N/A speed=7.51x    frame=31488 fps=180 q=-0.0 size=N/A time=00:21:53.31 bitrate=N/A speed=7.51x    frame=31582 fps=180 q=-0.0 size=N/A time=00:21:57.23 bitrate=N/A speed=7.51x    frame=31680 fps=180 q=-0.0 size=N/A time=00:22:01.32 bitrate=N/A speed=7.51x    frame=31770 fps=180 q=-0.0 size=N/A time=00:22:05.07 bitrate=N/A speed=7.51x    frame=31861 fps=180 q=-0.0 size=N/A time=00:22:08.86 bitrate=N/A speed=7.51x    frame=31952 fps=180 q=-0.0 size=N/A time=00:22:12.66 bitrate=N/A speed=7.51x    frame=32047 fps=180 q=-0.0 size=N/A time=00:22:16.62 bitrate=N/A speed=7.51x    frame=32142 fps=180 q=-0.0 size=N/A time=00:22:20.58 bitrate=N/A speed=7.51x    frame=32234 fps=180 q=-0.0 size=N/A time=00:22:24.42 bitrate=N/A speed=7.51x    frame=32323 fps=180 q=-0.0 size=N/A time=00:22:28.13 bitrate=N/A speed=7.51x    frame=32409 fps=180 q=-0.0 size=N/A time=00:22:31.72 bitrate=N/A speed=7.51x    frame=32501 fps=180 q=-0.0 size=N/A time=00:22:35.56 bitrate=N/A speed=7.51x    frame=32589 fps=180 q=-0.0 size=N/A time=00:22:39.23 bitrate=N/A speed=7.51x    frame=32685 fps=180 q=-0.0 size=N/A time=00:22:43.23 bitrate=N/A speed=7.51x    frame=32771 fps=180 q=-0.0 size=N/A time=00:22:46.82 bitrate=N/A speed=7.51x    frame=32867 fps=180 q=-0.0 size=N/A time=00:22:50.82 bitrate=N/A speed=7.51x    frame=32954 fps=180 q=-0.0 size=N/A time=00:22:54.45 bitrate=N/A speed= 7.5x    frame=33034 fps=180 q=-0.0 size=N/A time=00:22:57.79 bitrate=N/A speed= 7.5x    frame=33141 fps=180 q=-0.0 size=N/A time=00:23:02.25 bitrate=N/A speed=7.51x    frame=33235 fps=180 q=-0.0 size=N/A time=00:23:06.17 bitrate=N/A speed=7.51x    frame=33319 fps=180 q=-0.0 size=N/A time=00:23:09.67 bitrate=N/A speed= 7.5x    frame=33418 fps=180 q=-0.0 size=N/A time=00:23:13.80 bitrate=N/A speed= 7.5x    frame=33502 fps=180 q=-0.0 size=N/A time=00:23:17.31 bitrate=N/A speed= 7.5x    frame=33601 fps=180 q=-0.0 size=N/A time=00:23:21.44 bitrate=N/A speed= 7.5x    frame=33696 fps=180 q=-0.0 size=N/A time=00:23:25.40 bitrate=N/A speed= 7.5x    frame=33787 fps=180 q=-0.0 size=N/A time=00:23:29.19 bitrate=N/A speed= 7.5x    frame=33884 fps=180 q=-0.0 size=N/A time=00:23:33.24 bitrate=N/A speed= 7.5x    frame=33972 fps=180 q=-0.0 size=N/A time=00:23:36.91 bitrate=N/A speed= 7.5x    [Parsed_psnr_10 @ 000001e00ed15c00] PSNR y:44.767498 u:49.375502 v:49.733580 average:45.860675 min:37.655709 max:inf
[out#0/null @ 000001e00e7d4ac0] video:14629KiB audio:266464KiB subtitle:0KiB other streams:0KiB global headers:0KiB muxing overhead: unknown
frame=34046 fps=180 q=-0.0 Lsize=N/A time=00:23:40.00 bitrate=N/A speed= 7.5x    
